<?xml version="1.0" encoding="utf-8"?>
<!-- Generator: Adobe Illustrator 25.4.0, SVG Export Plug-In . SVG Version: 6.00 Build 0)  -->
<svg version="1.1" id="Layer_1" xmlns="http://www.w3.org/2000/svg" xmlns:xlink="http://www.w3.org/1999/xlink" x="0px" y="0px"
	 viewBox="0 0 1920 385" style="enable-background:new 0 0 1920 385;" xml:space="preserve">
<style type="text/css">
	.st0{fill:#18B8B5;}
	.st1{fill:#FFCC00;}
</style>
<g>
	<g>
		<g>
			<g>
				<g>
					<path class="st0" d="M16,276.9h41.8c3.1,32,20.1,52.1,63.5,52.1c40.8,0,58.8-13.9,58.8-42.8c0-28.4-21.2-37.7-63-45.4
						c-70.2-12.9-93.9-32.5-93.9-79.5c0-50.1,49-75.9,91.3-75.9c48.5,0,90.3,19.6,97.5,77.9h-41.3c-6.2-29.4-22.7-42.3-56.8-42.3
						c-31,0-51.1,15.5-51.1,38.7c0,24.3,13.4,34.1,63,42.8c55.7,10.3,94.9,22.7,94.9,80c0,49-33.5,82-99.1,82
						C57.3,364.7,18.6,332.1,16,276.9z"/>
					<path class="st0" d="M254.4,90.1h46.4l63,217.2l65.5-217.2h37.2l61.4,217.2l63.5-217.2h43.9L551.1,360h-47.5l-56.2-202.3
						l-63,202.3h-47L254.4,90.1z"/>
					<path class="st0" d="M665.6,285.2c0-62.4,66-83.6,135.2-83.6h38.7V182c0-42.8-16.5-60.9-57.8-60.9c-37.2,0-57.8,15.5-61.9,48.5
						H677c5.7-61.4,54.7-84.1,106.8-84.1c51.6,0,98.6,21.2,98.6,96.5v178h-42.8V326c-20.1,25.3-44.4,38.7-84.1,38.7
						C705.4,364.7,665.6,340.4,665.6,285.2z M839.5,265.6V232h-37.2c-54.2,0-93.9,13.4-93.9,53.1c0,27.9,13.4,45.4,51.1,45.4
						C804.9,330.6,839.5,307.4,839.5,265.6z"/>
					<path class="st1" d="M1217.7,285.2c0-62.4,66-83.6,135.2-83.6h38.7V182c0-42.8-16.5-60.9-57.8-60.9
						c-37.2,0-57.8,15.5-61.9,48.5h-42.8c5.7-61.4,54.7-84.1,106.8-84.1c51.6,0,98.6,21.2,98.6,96.5v178h-42.8V326
						c-20.1,25.3-44.4,38.7-84.1,38.7C1257.5,364.7,1217.7,340.4,1217.7,285.2z M1391.6,265.6V232h-37.2
						c-54.2,0-93.9,13.4-93.9,53.1c0,27.9,13.4,45.4,51.1,45.4C1357.1,330.6,1391.6,307.4,1391.6,265.6z"/>
					<path class="st1" d="M1518.6,90.1h42.8v41.3c12.4-25.3,41.8-45.9,80.5-45.9c34.6,0,65,14.4,78.9,50.6
						c18.6-35.1,58.8-50.6,92.4-50.6c48.5,0,90.8,28.9,90.8,107.3V360h-42.8V189.7c0-47.5-20.1-67.1-57.3-67.1
						c-35.1,0-71.2,23.7-71.2,72.2V360h-42.8V189.7c0-47.5-20.1-67.1-57.3-67.1c-35.1,0-71.2,23.7-71.2,72.2V360h-42.8V90.1z"/>
				</g>
			</g>
		</g>
	</g>
	<g>
		<g>
			<g>
				<path class="st1" d="M1085.1,235.9h-44.6c0-82.9,67.4-150.3,150.3-150.3v44.6C1132.5,130.1,1085.1,177.6,1085.1,235.9z"/>
			</g>
		</g>
		<g>
			<rect x="1040.5" y="234.4" class="st0" width="44.6" height="127.7"/>
		</g>
		<g>
			<path class="st0" d="M1085.1,235.9h-44.6c0-58.3-47.4-105.7-105.7-105.7V85.6C1017.7,85.6,1085.1,153,1085.1,235.9z"/>
		</g>
		<circle class="st0" cx="1062.8" cy="52.9" r="32.6"/>
	</g>
</g>
</svg>
